<svg xmlns="http://www.w3.org/2000/svg" width="1024" height="1024" viewBox="0 0 1024 1024">
<defs><linearGradient id="sweep" gradientUnits="userSpaceOnUse" x1="294.03" y1="834.00" x2="729.97" y2="190.00"><stop offset="0.0000" stop-color="#06F556"/><stop offset="0.5000" stop-color="#55F306"/><stop offset="1.0000" stop-color="#DCDC06"/></linearGradient></defs>
<rect width="1024" height="1024" fill="#0D0D1F"/>
<path d="M 495.99 591.99 L 495.37 591.17 L 494.72 590.36 L 494.06 589.56 L 493.37 588.78 L 492.65 588.01 L 491.92 587.26 L 491.17 586.53 L 490.39 585.81 L 489.60 585.10 L 488.78 584.42 L 487.95 583.75 L 487.09 583.10 L 486.22 582.46 L 485.33 581.85 L 484.42 581.26 L 483.49 580.69 L 482.55 580.14 L 481.59 579.61 L 480.61 579.10 L 479.62 578.61 L 478.61 578.15 L 477.59 577.71 L 476.55 577.30 L 475.50 576.91 L 474.44 576.54 L 473.36 576.20 L 472.27 575.88 L 471.17 575.59 L 470.06 575.33 L 468.94 575.09 L 467.81 574.88 L 466.67 574.69 L 465.52 574.54 L 464.36 574.41 L 463.20 574.31 L 462.03 574.23 L 460.86 574.19 L 459.68 574.17 L 458.49 574.19 L 457.30 574.23 L 456.11 574.30 L 454.92 574.40 L 453.72 574.54 L 452.53 574.70 L 451.33 574.89 L 450.14 575.11 L 448.94 575.36 L 447.75 575.65 L 446.56 575.96 L 445.38 576.30 L 444.20 576.67 L 443.02 577.08 L 441.85 577.51 L 440.69 577.98 L 439.54 578.47 L 438.39 578.99 L 437.25 579.55 L 436.13 580.13 L 435.01 580.75 L 433.90 581.39 L 432.81 582.06 L 431.73 582.76 L 430.66 583.50 L 429.61 584.25 L 428.57 585.04 L 427.55 585.86 L 426.55 586.70 L 425.56 587.58 L 424.59 588.47 L 423.64 589.40 L 422.71 590.35 L 421.80 591.33 L 420.91 592.34 L 420.04 593.37 L 419.20 594.42 L 418.38 595.50 L 417.58 596.60 L 416.80 597.73 L 416.05 598.88 L 415.33 600.05 L 414.64 601.24 L 413.97 602.46 L 413.32 603.69 L 412.71 604.95 L 412.13 606.22 L 411.57 607.51 L 411.05 608.82 L 410.55 610.15 L 410.09 611.50 L 409.66 612.86 L 409.26 614.23 L 408.89 615.62 L 408.56 617.03 L 408.25 618.44 L 407.99 619.87 L 407.75 621.31 L 407.56 622.76 L 407.39 624.22 L 407.27 625.69 L 407.17 627.17 L 407.12 628.66 L 407.10 630.15 L 407.12 631.65 L 407.17 633.15 L 407.26 634.65 L 407.39 636.16 L 407.56 637.67 L 407.76 639.18 L 408.00 640.69 L 408.28 642.20 L 408.60 643.71 L 408.96 645.22 L 409.35 646.72 L 409.79 648.22 L 410.26 649.71 L 410.77 651.19 L 411.32 652.67 L 411.90 654.14 L 412.53 655.60 L 413.19 657.05 L 413.89 658.48 L 414.63 659.91 L 415.40 661.32 L 416.22 662.72 L 417.07 664.10 L 417.95 665.46 L 418.88 666.81 L 419.84 668.14 L 420.83 669.45 L 421.87 670.74 L 422.93 672.01 L 424.04 673.26 L 425.17 674.49 L 426.34 675.69 L 427.55 676.86 L 428.78 678.01 L 430.05 679.14 L 431.35 680.23 L 432.69 681.30 L 434.05 682.34 L 435.44 683.35 L 436.87 684.33 L 438.32 685.27 L 439.80 686.18 L 441.30 687.06 L 442.84 687.91 L 444.40 688.72 L 445.98 689.50 L 447.59 690.23 L 449.23 690.94 L 450.88 691.60 L 452.56 692.22 L 454.26 692.81 L 455.98 693.36 L 457.72 693.86 L 459.48 694.33 L 461.25 694.75 L 463.04 695.13 L 464.85 695.47 L 466.67 695.76 L 468.50 696.01 L 470.35 696.22 L 472.20 696.38 L 474.07 696.49 L 475.95 696.56 L 477.83 696.59 L 479.73 696.57 L 481.62 696.50 L 483.53 696.38 L 485.43 696.22 L 487.34 696.01 L 489.25 695.75 L 491.16 695.44 L 493.07 695.09 L 494.97 694.69 L 496.87 694.24 L 498.77 693.74 L 500.66 693.19 L 502.55 692.59 L 504.42 691.95 L 506.29 691.26 L 508.15 690.52 L 509.99 689.73 L 511.82 688.89 L 513.64 688.01 L 515.44 687.07 L 517.22 686.09 L 518.99 685.07 L 520.73 683.99 L 522.46 682.87 L 524.16 681.70 L 525.84 680.49 L 527.50 679.23 L 529.13 677.93 L 530.74 676.58 L 532.31 675.19 L 533.86 673.75 L 535.38 672.27 L 536.86 670.75 L 538.32 669.19 L 539.74 667.58 L 541.12 665.94 L 542.47 664.26 L 543.79 662.53 L 545.06 660.77 L 546.30 658.97 L 547.49 657.14 L 548.64 655.27 L 549.76 653.36 L 550.83 651.42 L 551.85 649.45 L 552.83 647.45 L 553.76 645.41 L 554.65 643.35 L 555.49 641.26 L 556.28 639.14 L 557.02 636.99 L 557.71 634.82 L 558.35 632.62 L 558.93 630.40 L 559.47 628.16 L 559.95 625.90 L 560.37 623.61 L 560.74 621.31 L 561.06 619.00 L 561.32 616.66 L 561.52 614.32 L 561.67 611.96 L 561.76 609.58 L 561.79 607.20 L 561.76 604.81 L 561.68 602.41 L 561.53 600.01 L 561.32 597.60 L 561.06 595.19 L 560.73 592.78 L 560.35 590.37 L 559.90 587.95 L 559.39 585.55 L 558.82 583.14 L 558.19 580.74 L 557.50 578.35 L 556.75 575.97 L 555.93 573.60 L 555.06 571.24 L 554.12 568.90 L 553.12 566.57 L 552.06 564.25 L 550.95 561.96 L 549.77 559.68 L 548.53 557.43 L 547.23 555.20 L 545.87 552.99 L 544.46 550.81 L 542.98 548.66 L 541.45 546.53 L 539.86 544.44 L 538.21 542.38 L 536.51 540.35 L 534.75 538.36 L 532.93 536.40 L 531.06 534.49 L 529.14 532.61 L 527.17 530.77 L 525.14 528.98 L 523.06 527.23 L 520.93 525.52 L 518.76 523.86 L 516.53 522.25 L 514.26 520.69 L 511.94 519.18 L 509.58 517.72 L 507.17 516.32 L 504.72 514.97 L 502.23 513.67 L 499.70 512.43 L 497.13 511.25 L 494.52 510.13 L 491.87 509.07 L 489.19 508.08 L 486.48 507.14 L 483.73 506.27 L 480.96 505.46 L 478.15 504.72 L 475.32 504.05 L 472.46 503.44 L 469.57 502.90 L 466.67 502.43 L 463.74 502.03 L 460.79 501.70 L 457.83 501.44 L 454.84 501.26 L 451.85 501.15 L 448.84 501.11 L 445.82 501.14 L 442.79 501.25 L 439.75 501.44 L 436.71 501.70 L 433.66 502.03 L 430.61 502.45 L 427.56 502.93 L 424.51 503.50 L 421.47 504.14 L 418.43 504.86 L 415.40 505.66 L 412.38 506.53 L 409.37 507.48 L 406.37 508.51 L 403.39 509.62 L 400.43 510.80 L 397.49 512.06 L 394.56 513.40 L 391.66 514.81 L 388.79 516.30 L 385.94 517.87 L 383.12 519.51 L 380.33 521.22 L 377.57 523.01 L 374.85 524.88 L 372.17 526.82 L 369.52 528.83 L 366.92 530.91 L 364.36 533.06 L 361.84 535.28 L 359.37 537.58 L 356.95 539.94 L 354.57 542.37 L 352.25 544.86 L 349.98 547.42 L 347.77 550.05 L 345.62 552.74 L 343.52 555.49 L 341.49 558.30 L 339.51 561.17 L 337.60 564.10 L 335.76 567.09 L 333.99 570.13 L 332.28 573.23 L 330.64 576.38 L 329.08 579.58 L 327.59 582.82 L 326.17 586.12 L 324.83 589.46 L 323.57 592.85 L 322.39 596.28 L 321.29 599.75 L 320.27 603.26 L 319.33 606.80 L 318.48 610.38 L 317.71 613.99 L 317.03 617.64 L 316.44 621.31 L 315.93 625.01 L 315.52 628.74 L 315.19 632.49 L 314.96 636.25 L 314.82 640.04 L 314.77 643.84 L 314.81 647.66 L 314.95 651.49 L 315.19 655.33 L 315.51 659.17 L 315.94 663.03 L 316.46 666.88 L 317.08 670.73 L 317.79 674.58 L 318.60 678.43 L 319.51 682.27 L 320.52 686.10 L 321.62 689.91 L 322.83 693.72 L 324.13 697.50 L 325.52 701.27 L 327.02 705.02 L 328.61 708.74 L 330.30 712.43 L 332.09 716.10 L 333.97 719.73 L 335.95 723.33 L 338.02 726.89 L 340.19 730.42 L 342.45 733.90 L 344.81 737.34 L 347.25 740.73 L 349.79 744.07 L 352.42 747.36 L 355.15 750.60 L 357.95 753.78 L 360.85 756.90 L 363.84 759.96 L 366.91 762.96 L 370.06 765.90 L 373.30 768.76 L 376.61 771.56 L 380.01 774.28 L 383.49 776.93 L 387.04 779.50 L 390.67 781.99 L 394.37 784.41 L 398.15 786.74 L 401.99 788.98 L 405.90 791.14 L 409.88 793.20 L 413.93 795.18 L 418.03 797.06 L 422.20 798.85 L 426.42 800.54 L 430.70 802.14 L 435.03 803.63 L 439.42 805.02 L 443.85 806.31 L 448.33 807.50 L 452.85 808.57 L 457.42 809.54 L 462.03 810.40 L 466.67 811.15 L 471.34 811.79 L 476.05 812.32 L 480.79 812.73 L 485.55 813.02 L 490.34 813.20 L 495.14 813.26 L 499.96 813.21 L 504.80 813.03 L 509.65 812.74 L 514.51 812.32 L 519.38 811.79 L 524.25 811.13 L 529.12 810.35 L 533.98 809.44 L 538.84 808.42 L 543.69 807.27 L 548.53 806.00 L 553.36 804.60 L 558.16 803.08 L 562.95 801.44 L 567.71 799.67 L 572.44 797.78 L 577.14 795.77 L 581.81 793.64 L 586.44 791.38 L 591.03 789.00 L 595.58 786.50 L 600.09 783.88 L 604.54 781.14 L 608.94 778.28 L 613.28 775.31 L 617.57 772.21 L 621.79 769.00 L 625.95 765.68 L 630.04 762.24 L 634.06 758.69 L 638.01 755.03 L 641.88 751.26 L 645.67 747.38 L 649.38 743.39 L 653.00 739.30 L 656.53 735.11 L 659.97 730.82 L 663.32 726.42 L 666.57 721.93 L 669.72 717.35 L 672.77 712.67 L 675.71 707.90 L 678.54 703.04 L 681.27 698.10 L 683.88 693.07 L 686.38 687.96 L 688.76 682.77 L 691.02 677.51 L 693.16 672.17 L 695.17 666.76 L 697.06 661.29 L 698.82 655.75 L 700.45 650.15 L 701.94 644.49 L 703.30 638.77 L 704.53 633.00 L 705.62 627.18 L 706.56 621.31 L 707.37 615.40 L 708.03 609.46 L 708.55 603.47 L 708.93 597.45 L 709.15 591.40 L 709.23 585.33 L 709.16 579.24 L 708.94 573.12 L 708.57 566.99 L 708.04 560.85 L 707.36 554.70 L 706.53 548.55 L 705.55 542.40 L 704.40 536.25 L 703.11 530.11 L 701.66 523.98 L 700.05 517.86 L 698.29 511.77 L 696.37 505.69 L 694.29 499.65 L 692.06 493.63 L 689.67 487.65 L 687.13 481.71 L 684.43 475.81 L 681.58 469.96 L 678.57 464.15 L 675.41 458.41 L 672.10 452.72 L 668.64 447.09 L 665.03 441.53 L 661.27 436.04 L 657.36 430.62 L 657.36 430.62 L 666.72 422.00 L 670.31 417.55 L 672.88 413.86 L 674.90 410.58 L 676.57 407.56 L 677.97 404.75 L 679.18 402.08 L 680.22 399.54 L 681.12 397.11 L 681.91 394.77 L 682.60 392.50 L 683.20 390.31 L 683.71 388.17 L 684.16 386.10 L 684.53 384.08 L 684.85 382.10 L 685.11 380.17 L 685.32 378.28 L 685.48 376.43 L 685.59 374.62 L 685.66 372.84 L 685.68 371.09 L 685.67 369.37 L 685.62 367.68 L 685.54 366.02 L 685.42 364.38 L 685.27 362.76 L 685.08 361.17 L 684.87 359.61 L 684.63 358.06 L 684.36 356.54 L 684.06 355.03 L 683.74 353.54 L 683.39 352.08 L 683.02 350.62 L 682.62 349.19 L 682.20 347.77 L 681.76 346.37 L 681.30 344.98 L 680.82 343.61 L 680.31 342.25 L 679.79 340.90 L 679.24 339.57 L 678.68 338.25 L 678.10 336.94 L 677.50 335.64 L 676.88 334.36 L 676.24 333.08 L 675.59 331.82 L 674.92 330.56 L 674.24 329.32 L 673.54 328.08 L 672.82 326.86 L 672.09 325.64 L 671.34 324.43 L 670.58 323.23 L 669.81 322.03 L 669.02 320.85 L 668.21 319.67 L 667.40 318.50 L 666.57 317.33 L 665.73 316.17 L 664.87 315.02 L 664.00 313.88 L 663.12 312.74 L 662.23 311.60 L 661.33 310.47 L 660.42 309.35 L 659.49 308.23 L 658.55 307.11 L 657.61 306.00 L 656.65 304.90 L 655.68 303.80 L 654.70 302.70 L 653.71 301.60 L 652.71 300.51 L 651.71 299.43 L 650.69 298.34 L 649.66 297.26 L 648.63 296.18 L 647.58 295.11 L 646.53 294.04 L 645.47 292.97 L 644.40 291.90 L 643.32 290.83 L 642.23 289.77 L 641.13 288.71 L 640.03 287.65 L 638.92 286.59 L 637.80 285.53 L 636.68 284.48 L 635.55 283.42 L 634.41 282.37 L 633.26 281.32 L 632.11 280.27 L 630.95 279.22 L 629.78 278.17 L 628.61 277.12 L 627.43 276.07 L 626.24 275.02 L 625.05 273.97 L 623.85 272.92 L 622.65 271.88 L 621.44 270.83 L 620.22 269.78 L 619.00 268.73 L 617.78 267.68 L 616.54 266.63 L 615.31 265.58 L 614.07 264.53 L 612.82 263.48 L 611.57 262.43 L 610.31 261.38 L 609.05 260.32 L 607.78 259.27 L 606.51 258.21 L 605.24 257.16 L 603.96 256.10 L 602.67 255.04 L 601.38 253.98 L 600.09 252.92 L 598.79 251.85 L 597.49 250.79 L 596.18 249.72 L 594.87 248.66 L 593.56 247.59 L 592.24 246.52 L 590.91 245.45 L 589.59 244.37 L 588.26 243.30 L 586.92 242.22 L 585.58 241.14 L 584.24 240.06 L 582.89 238.98 L 581.53 237.89 L 580.18 236.81 L 578.81 235.72 L 577.45 234.63 L 576.07 233.54 L 574.70 232.45 L 573.31 231.35 L 571.92 230.26 L 570.53 229.16 L 569.13 228.06 L 567.72 226.96 L 566.31 225.86 L 564.88 224.76 L 563.45 223.66 L 562.01 222.56 L 560.56 221.45 L 559.10 220.35 L 557.62 219.25 L 556.13 218.15 L 554.62 217.05 L 553.08 215.96 L 551.52 214.87 L 549.92 213.79 L 548.26 212.72 L 546.52 211.68 L 544.47 210.74 L 544.47 210.74 L 543.41 212.73 L 542.66 214.63 L 542.01 216.50 L 541.42 218.35 L 540.87 220.19 L 540.35 222.03 L 539.86 223.85 L 539.40 225.68 L 538.96 227.50 L 538.54 229.32 L 538.13 231.14 L 537.74 232.95 L 537.37 234.77 L 537.01 236.58 L 536.66 238.39 L 536.32 240.20 L 536.00 242.01 L 535.69 243.82 L 535.39 245.62 L 535.11 247.43 L 534.83 249.24 L 534.56 251.05 L 534.31 252.85 L 534.06 254.66 L 533.82 256.46 L 533.60 258.27 L 533.38 260.07 L 533.18 261.88 L 532.98 263.68 L 532.79 265.48 L 532.62 267.29 L 532.45 269.09 L 532.29 270.89 L 532.14 272.69 L 532.00 274.49 L 531.88 276.29 L 531.76 278.09 L 531.65 279.89 L 531.55 281.69 L 531.46 283.49 L 531.38 285.28 L 531.30 287.08 L 531.24 288.87 L 531.19 290.66 L 531.15 292.45 L 531.12 294.24 L 531.10 296.03 L 531.09 297.82 L 531.09 299.61 L 531.10 301.39 L 531.12 303.17 L 531.15 304.95 L 531.19 306.73 L 531.24 308.51 L 531.30 310.28 L 531.37 312.06 L 531.46 313.83 L 531.55 315.60 L 531.66 317.36 L 531.78 319.12 L 531.91 320.88 L 532.05 322.64 L 532.20 324.40 L 532.36 326.15 L 532.54 327.90 L 532.72 329.64 L 532.92 331.38 L 533.14 333.12 L 533.36 334.86 L 533.60 336.59 L 533.85 338.31 L 534.11 340.04 L 534.38 341.76 L 534.67 343.47 L 534.97 345.18 L 535.28 346.89 L 535.61 348.59 L 535.95 350.28 L 536.31 351.97 L 536.68 353.66 L 537.06 355.34 L 537.46 357.01 L 537.87 358.68 L 538.30 360.34 L 538.74 362.00 L 539.19 363.65 L 539.67 365.29 L 540.15 366.93 L 540.65 368.56 L 541.17 370.18 L 541.71 371.80 L 542.26 373.41 L 542.82 375.01 L 543.41 376.60 L 544.00 378.19 L 544.62 379.76 L 545.26 381.33 L 545.91 382.89 L 546.58 384.44 L 547.26 385.98 L 547.97 387.51 L 548.69 389.03 L 549.43 390.54 L 550.20 392.04 L 550.98 393.53 L 551.78 395.01 L 552.60 396.48 L 553.44 397.93 L 554.30 399.38 L 555.18 400.81 L 556.08 402.23 L 557.01 403.63 L 557.95 405.03 L 558.92 406.40 L 559.91 407.77 L 560.93 409.12 L 561.97 410.45 L 563.03 411.77 L 564.12 413.08 L 565.23 414.36 L 566.37 415.63 L 567.53 416.89 L 568.72 418.12 L 569.94 419.34 L 571.18 420.53 L 572.46 421.71 L 573.76 422.87 L 575.09 424.00 L 576.46 425.12 L 577.85 426.21 L 579.28 427.27 L 580.75 428.32 L 582.24 429.33 L 583.78 430.32 L 585.35 431.29 L 586.96 432.22 L 588.61 433.12 L 590.30 433.99 L 592.04 434.83 L 593.82 435.64 L 595.65 436.40 L 597.54 437.13 L 599.47 437.81 L 601.47 438.45 L 603.52 439.05 L 605.64 439.59 L 607.84 440.08 L 610.11 440.50 L 612.46 440.86 L 614.91 441.15 L 617.47 441.36 L 620.15 441.47 L 622.96 441.47 L 625.95 441.34 L 629.14 441.06 L 632.60 440.58 L 636.42 439.82 L 640.79 438.66 L 646.18 436.73 L 657.36 430.62" fill="none" stroke="url(#sweep)" stroke-width="41.47" stroke-linecap="round" stroke-linejoin="round"/>
<path d="M 622.21 377.66 L 621.41 376.34 L 620.60 375.01 L 619.80 373.68 L 619.00 372.35 L 618.21 371.02 L 617.42 369.69 L 616.62 368.36 L 615.84 367.02 L 615.05 365.69 L 614.27 364.35 L 613.49 363.01 L 612.71 361.67 L 611.93 360.32 L 611.16 358.98 L 610.39 357.63 L 609.62 356.29 L 608.85 354.94 L 608.09 353.59 L 607.33 352.24 L 606.57 350.89 L 605.82 349.53 L 605.06 348.18 L 604.31 346.82 L 603.56 345.46 L 602.82 344.10 L 602.08 342.74 L 601.34 341.38 L 600.60 340.01 L 599.86 338.65 L 599.13 337.28 L 598.40 335.91 L 597.67 334.54 L 596.95 333.17 L 596.23 331.80 L 595.51 330.43 L 594.79 329.05 L 594.07 327.68 L 593.36 326.30 L 592.65 324.92 L 591.95 323.54 L 591.24 322.16 L 590.54 320.78 L 589.84 319.39 L 589.14 318.01 L 588.45 316.62 L 587.76 315.23 L 587.07 313.84" fill="none" stroke="#FFFFFF" stroke-width="19.91" stroke-linecap="round" stroke-linejoin="round"/>
</svg>
